<svg width="88" height="88" viewBox="0 0 88 88" fill="none" xmlns="http://www.w3.org/2000/svg">
<path d="M79.64 87.2H7.56C3.38 87.2 0 83.82 0 79.64V7.56C0 3.38 3.38 0 7.56 0H79.64C83.81 0 87.2 3.38 87.2 7.56V79.64C87.2 83.82 83.82 87.2 79.64 87.2Z" fill="#FF5A43"/>
<path d="M35.79 31.4C38.6619 31.4 40.99 28.9555 40.99 25.94C40.99 22.9245 38.6619 20.48 35.79 20.48C32.9181 20.48 30.59 22.9245 30.59 25.94C30.59 28.9555 32.9181 31.4 35.79 31.4Z" fill="#333333"/>
<path d="M45.58 33.88C45.58 33.88 45.07 33.94 43.59 33.94C42.1 33.94 41.53 33.88 41.53 33.88C41.08 33.85 40.8 33.71 41.07 33.59L43.1 32.69C43.32 32.59 43.79 32.59 44.02 32.69L46.04 33.59C46.32 33.71 46.06 33.84 45.58 33.88Z" fill="#333333"/>
<path d="M46.04 34.98L44.02 37.22C43.79 37.47 43.32 37.47 43.1 37.22L41.07 34.98C40.8 34.67 41.07 34.25 41.53 34.25C41.53 34.25 42.17 34.39 43.59 34.39C45.01 34.39 45.58 34.25 45.58 34.25C46.05 34.25 46.32 34.67 46.04 34.98Z" fill="#333333"/>
<path d="M55.9 25.94C55.9 28.96 53.57 31.4 50.7 31.4C47.83 31.4 45.5 28.96 45.5 25.94C45.5 22.92 47.83 20.48 50.7 20.48C53.57 20.48 55.9 22.92 55.9 25.94Z" fill="#333333"/>
<path d="M60.04 56.67C60.04 66.26 52.67 74.04 43.59 74.04C34.5 74.04 27.13 66.26 27.13 56.67C27.13 47.08 34.5 39.31 43.59 39.31C52.67 39.31 60.04 47.08 60.04 56.67Z" fill="#333333"/>
<path d="M60.04 56.67C60.04 66.26 52.67 74.04 43.59 74.04C34.5 74.04 27.13 66.26 27.13 56.67C27.13 47.08 34.5 39.31 43.59 39.31C52.67 39.31 60.04 47.08 60.04 56.67Z" fill="white"/>
<path d="M73.57 53.24C69.79 50.26 66.65 46.51 64.39 42.23C64.14 41.77 63.91 41.31 63.69 40.84C63.68 40.82 63.66 40.81 63.65 40.79C63.61 40.72 63.57 40.65 63.53 40.58C61.08 34.37 60.6 29.54 60.51 27.5C60.53 27.15 60.54 26.8 60.54 26.45C60.54 17.08 52.95 9.49001 43.59 9.49001C34.22 9.49001 26.63 17.08 26.63 26.45C26.63 26.45 26.86 32.41 23.48 40.83C23.17 41.41 22.88 42.01 22.62 42.62C22.61 42.63 22.61 42.63 22.61 42.63C20.36 46.75 17.29 50.35 13.63 53.24C13.12 53.65 13.47 54.48 14.12 54.39C16.34 54.07 18.49 53.54 20.55 52.82C20.6 62.59 26.11 71 34.03 74.81C33.33 75.57 32.9 76.59 32.9 77.71C32.9 77.71 32.9 77.71 32.9 77.72H41.53C41.53 77.71 41.53 77.71 41.53 77.71C41.53 77.43 41.5 77.16 41.45 76.89C42.15 76.96 42.87 77 43.59 77C44.26 77 44.93 76.97 45.58 76.9C45.53 77.16 45.5 77.43 45.5 77.71C45.5 77.71 45.5 77.71 45.5 77.72H54.13C54.13 77.71 54.13 77.71 54.13 77.71C54.13 76.61 53.73 75.61 53.05 74.85C61.02 71.06 66.57 62.62 66.62 52.8C68.69 53.53 70.86 54.07 73.09 54.39C73.74 54.48 74.09 53.65 73.57 53.24ZM50.7 20.48C53.57 20.48 55.9 22.92 55.9 25.94C55.9 28.96 53.57 31.4 50.7 31.4C47.83 31.4 45.5 28.96 45.5 25.94C45.5 22.92 47.83 20.48 50.7 20.48ZM43.1 32.69C43.32 32.59 43.79 32.59 44.02 32.69L46.04 33.59C46.32 33.71 46.06 33.84 45.58 33.88C45.58 33.88 45.07 33.94 43.59 33.94C42.1 33.94 41.53 33.88 41.53 33.88C41.08 33.85 40.8 33.71 41.07 33.59L43.1 32.69ZM46.04 34.98L44.02 37.22C43.79 37.47 43.32 37.47 43.1 37.22L41.07 34.98C40.8 34.67 41.07 34.25 41.53 34.25C41.53 34.25 42.17 34.39 43.59 34.39C45.01 34.39 45.58 34.25 45.58 34.25C46.05 34.25 46.32 34.67 46.04 34.98ZM35.79 20.48C38.66 20.48 40.99 22.92 40.99 25.94C40.99 28.96 38.66 31.4 35.79 31.4C32.92 31.4 30.59 28.96 30.59 25.94C30.59 22.92 32.92 20.48 35.79 20.48ZM43.59 74.04C34.5 74.04 27.13 66.26 27.13 56.67C27.13 47.08 34.5 39.31 43.59 39.31C52.67 39.31 60.04 47.08 60.04 56.67C60.04 66.26 52.67 74.04 43.59 74.04Z" fill="#333333"/>
<path d="M55.9 25.94C55.9 28.96 53.57 31.4 50.7 31.4C47.83 31.4 45.5 28.96 45.5 25.94C45.5 22.92 47.83 20.48 50.7 20.48C53.57 20.48 55.9 22.92 55.9 25.94Z" fill="white"/>
<path d="M50.7 28.29C51.9371 28.29 52.94 27.2379 52.94 25.94C52.94 24.6421 51.9371 23.59 50.7 23.59C49.4629 23.59 48.46 24.6421 48.46 25.94C48.46 27.2379 49.4629 28.29 50.7 28.29Z" fill="#333333"/>
<path d="M35.79 31.4C38.6619 31.4 40.99 28.9555 40.99 25.94C40.99 22.9245 38.6619 20.48 35.79 20.48C32.9181 20.48 30.59 22.9245 30.59 25.94C30.59 28.9555 32.9181 31.4 35.79 31.4Z" fill="white"/>
<path d="M35.79 28.29C37.0271 28.29 38.03 27.2379 38.03 25.94C38.03 24.6421 37.0271 23.59 35.79 23.59C34.5529 23.59 33.55 24.6421 33.55 25.94C33.55 27.2379 34.5529 28.29 35.79 28.29Z" fill="#333333"/>
<path d="M45.58 33.88C45.58 33.88 45.07 33.94 43.59 33.94C42.1 33.94 41.53 33.88 41.53 33.88C41.08 33.85 40.8 33.71 41.07 33.59L43.1 32.69C43.32 32.59 43.79 32.59 44.02 32.69L46.04 33.59C46.32 33.71 46.06 33.84 45.58 33.88Z" fill="#FF5A43"/>
<path d="M46.04 34.98L44.02 37.22C43.79 37.47 43.32 37.47 43.1 37.22L41.07 34.98C40.8 34.67 41.07 34.25 41.53 34.25C41.53 34.25 42.17 34.39 43.59 34.39C45.01 34.39 45.58 34.25 45.58 34.25C46.05 34.25 46.32 34.67 46.04 34.98Z" fill="#FF5A43"/>
</svg>
